<svg width="300" height="111" version="1.1" xmlns="http://www.w3.org/2000/svg"><path fill="rgb(0,0,0)" stroke="rgb(0,0,0)" stroke-width="1" opacity="0" d="M 0 0 L 202.5 0 L 203 0.5 L 203 43.5 L 201.5 43 L 187.5 37 L 172.5 37 L 162.5 41 L 152 49.5 L 152 81.5 L 148 93.5 L 159.5 106 L 170 110.5 L 125.5 111 L 125.5 110 L 134.5 106 L 144 96.5 L 150 84.5 L 150 1 L 135 1 L 135 43.5 L 133.5 43 L 128.5 40 L 118.5 37 L 107.5 37 L 95.5 41 L 84 50.5 L 77 62.5 L 76 70.5 L 78.5 69 L 80.5 68 L 90.5 68 L 92 68.5 L 94 62.5 L 100.5 56 L 106.5 53 L 119.5 53 L 125.5 56 L 132 62.5 L 135 69.5 L 135 80.5 L 131 88.5 L 126.5 93 L 116.5 97 L 109.5 97 L 101.5 94 L 96 89.5 L 94.5 87 L 89.5 91 L 81.5 91 L 79 90 L 82 96.5 L 91.5 106 L 101 110.5 L 49.5 111 L 49.5 110 L 57.5 107 L 67 98.5 L 71 93.5 L 71 86.5 L 68.5 83 L 59 82 L 57 88.5 L 59 94 L 51.5 92 L 45.5 96 L 33.5 97 L 27.5 95 L 19 87.5 L 16 80 L 74.5 80 L 75 83.5 L 77 87 L 80.5 89 L 89.5 89 L 93 87 L 95 83.5 L 95 74.5 L 93 71 L 89.5 69 L 80.5 69 L 77 71 L 77 73 L 75 73 L 75 67.5 L 72 58.5 L 59.5 44 L 50.5 39 L 43.5 37 L 31.5 37 L 18.5 42 L 6 53.5 L 0.5 67 L 0 0 Z "></path><path fill="rgb(0,0,0)" stroke="rgb(0,0,0)" stroke-width="1" opacity="0" d="M 218 0 L 288 0.5 L 281 5.5 L 280 12.5 L 284.5 19 L 293.5 20 L 299 15.5 L 299.5 14 L 300 111 L 191 110.5 L 202.5 105 L 212 95.5 L 217 85.5 L 218 80.5 L 218.5 53 L 219.5 54 L 252.5 54 L 254 53.5 L 216 106.5 L 215 110 L 298 110 L 298 38 L 218 38 L 218 0 Z "></path><path fill="rgb(0,0,0)" stroke="rgb(0,0,0)" stroke-width="1" opacity="0" d="M 292.5 0 L 300 0 L 300 6.5 L 299 6.5 L 294.5 1 L 292.5 1 L 292.5 0 Z "></path><path fill="rgb(0,0,0)" stroke="rgb(0,0,0)" stroke-width="1" opacity="0" d="M 281.5 41 L 282 94 L 245.5 94 L 245 92.5 L 281.5 41 Z "></path><path fill="rgb(0,0,0)" stroke="rgb(0,0,0)" stroke-width="1" opacity="0" d="M 175.5 52 L 185.5 52 L 188.5 53 L 192.5 55 L 200 62.5 L 203 70.5 L 203 78.5 L 199 87.5 L 194.5 92 L 189.5 95 L 179.5 97 L 169.5 94 L 162 87.5 L 158 77.5 L 158 70.5 L 161 62.5 L 168.5 55 L 175.5 52 Z "></path><path fill="rgb(0,0,0)" stroke="rgb(0,0,0)" stroke-width="1" opacity="0" d="M 31.5 53 L 43.5 53 L 48.5 55 L 55 60.5 L 58 64.5 L 18 65 L 22.5 58 L 31.5 53 Z "></path><path fill="rgb(0,0,0)" stroke="rgb(0,0,0)" stroke-width="1" opacity="0" d="M 0.5 82 L 4 92.5 L 14.5 105 L 26 110.5 L 0 111 L 0.5 82 Z "></path><path fill="rgb(145,147,149)" stroke="rgb(145,147,149)" stroke-width="1" opacity="0.5215686274509804" d="M 203.5 1 L 204 45 L 201 43.5 L 203 43.5 L 203.5 1 Z "></path><path fill="rgb(145,147,149)" stroke="rgb(145,147,149)" stroke-width="1" opacity="0.5215686274509804" d="M 217.5 1 L 218.5 39 L 219.5 38 L 298 38 L 298 108.5 L 296.5 110 L 283.5 110 L 282.5 109 L 281.5 110 L 215 110 L 216.5 107 L 216.5 109 L 281.5 109 L 282 108.5 L 282 96.5 L 282 94.5 L 282.5 42 L 283 109 L 296.5 109 L 297 108.5 L 297 39 L 283.5 39 L 281.5 41 L 281.5 39 L 219.5 39 L 219 39.5 L 219 52.5 L 218 53.5 L 217.5 80 L 217.5 1 Z "></path><path fill="rgb(145,147,149)" stroke="rgb(145,147,149)" stroke-width="1" opacity="0.5215686274509804" d="M 284.5 2 L 282.5 5 L 284.5 2 Z "></path><path fill="rgb(145,147,149)" stroke="rgb(145,147,149)" stroke-width="1" opacity="0.5215686274509804" d="M 295.5 2 L 300 7.5 L 300 12.5 L 299 12.5 L 299 7.5 L 295.5 2 Z "></path><path fill="rgb(145,147,149)" stroke="rgb(145,147,149)" stroke-width="1" opacity="0.5215686274509804" d="M 280.5 8 L 281 12.5 L 280 12.5 L 280.5 8 Z "></path><path fill="rgb(145,147,149)" stroke="rgb(145,147,149)" stroke-width="1" opacity="0.5215686274509804" d="M 297.5 16 L 295.5 19 L 291.5 20 L 291.5 19 L 297.5 16 Z "></path><path fill="rgb(145,147,149)" stroke="rgb(145,147,149)" stroke-width="1" opacity="0.5215686274509804" d="M 285.5 18 L 289 19.5 L 286.5 20 L 285.5 18 Z "></path><path fill="rgb(145,147,149)" stroke="rgb(145,147,149)" stroke-width="1" opacity="0.5215686274509804" d="M 174.5 37 L 187 37.5 L 174.5 38 L 174.5 37 Z "></path><path fill="rgb(145,147,149)" stroke="rgb(145,147,149)" stroke-width="1" opacity="0.5215686274509804" d="M 169.5 38 L 172 38.5 L 169.5 39 L 169.5 38 Z "></path><path fill="rgb(145,147,149)" stroke="rgb(145,147,149)" stroke-width="1" opacity="0.5215686274509804" d="M 164.5 40 L 166 40.5 L 161.5 43 L 162.5 41 L 164.5 40 Z "></path><path fill="rgb(145,147,149)" stroke="rgb(145,147,149)" stroke-width="1" opacity="0.5215686274509804" d="M 195.5 40 L 198 41.5 L 196.5 41 L 195.5 40 Z "></path><path fill="rgb(145,147,149)" stroke="rgb(145,147,149)" stroke-width="1" opacity="0.5215686274509804" d="M 280.5 42 L 279.5 44 L 280.5 42 Z "></path><path fill="rgb(145,147,149)" stroke="rgb(145,147,149)" stroke-width="1" opacity="0.5215686274509804" d="M 159.5 43 L 157.5 46 L 159.5 43 Z "></path><path fill="rgb(145,147,149)" stroke="rgb(145,147,149)" stroke-width="1" opacity="0.5215686274509804" d="M 278.5 45 L 276.5 48 L 278.5 45 Z "></path><path fill="rgb(145,147,149)" stroke="rgb(145,147,149)" stroke-width="1" opacity="0.5215686274509804" d="M 154.5 47 L 153.5 49 L 154.5 47 Z "></path><path fill="rgb(145,147,149)" stroke="rgb(145,147,149)" stroke-width="1" opacity="0.5215686274509804" d="M 275.5 49 L 274.5 51 L 275.5 49 Z "></path><path fill="rgb(145,147,149)" stroke="rgb(145,147,149)" stroke-width="1" opacity="0.5215686274509804" d="M 152.5 50 L 153 81.5 L 152 81.5 L 152.5 50 Z "></path><path fill="rgb(145,147,149)" stroke="rgb(145,147,149)" stroke-width="1" opacity="0.5215686274509804" d="M 176.5 51 L 185 51.5 L 176.5 52 L 176.5 51 Z "></path><path fill="rgb(145,147,149)" stroke="rgb(145,147,149)" stroke-width="1" opacity="0.5215686274509804" d="M 273.5 52 L 271.5 55 L 273.5 52 Z "></path><path fill="rgb(145,147,149)" stroke="rgb(145,147,149)" stroke-width="1" opacity="0.5215686274509804" d="M 170.5 53 L 172 53.5 L 166.5 57 L 168.5 54 L 170.5 53 Z "></path><path fill="rgb(145,147,149)" stroke="rgb(145,147,149)" stroke-width="1" opacity="0.5215686274509804" d="M 189.5 53 L 195 56.5 L 192.5 55 L 189.5 54 L 189.5 53 Z "></path><path fill="rgb(145,147,149)" stroke="rgb(145,147,149)" stroke-width="1" opacity="0.5215686274509804" d="M 252.5 56 L 251.5 58 L 252.5 56 Z "></path><path fill="rgb(145,147,149)" stroke="rgb(145,147,149)" stroke-width="1" opacity="0.5215686274509804" d="M 270.5 56 L 269.5 58 L 270.5 56 Z "></path><path fill="rgb(145,147,149)" stroke="rgb(145,147,149)" stroke-width="1" opacity="0.5215686274509804" d="M 250.5 59 L 249.5 61 L 250.5 59 Z "></path><path fill="rgb(145,147,149)" stroke="rgb(145,147,149)" stroke-width="1" opacity="0.5215686274509804" d="M 268.5 59 L 267.5 61 L 268.5 59 Z "></path><path fill="rgb(145,147,149)" stroke="rgb(145,147,149)" stroke-width="1" opacity="0.5215686274509804" d="M 162.5 60 L 161.5 62 L 162.5 60 Z "></path><path fill="rgb(145,147,149)" stroke="rgb(145,147,149)" stroke-width="1" opacity="0.5215686274509804" d="M 198.5 60 L 199.5 62 L 198.5 60 Z "></path><path fill="rgb(145,147,149)" stroke="rgb(145,147,149)" stroke-width="1" opacity="0.5215686274509804" d="M 248.5 62 L 246.5 65 L 248.5 62 Z "></path><path fill="rgb(145,147,149)" stroke="rgb(145,147,149)" stroke-width="1" opacity="0.5215686274509804" d="M 160.5 63 L 160 64.5 L 159.5 66 L 159 64.5 L 160.5 63 Z "></path><path fill="rgb(145,147,149)" stroke="rgb(145,147,149)" stroke-width="1" opacity="0.5215686274509804" d="M 200.5 63 L 202 65.5 L 201 65.5 L 200.5 63 Z "></path><path fill="rgb(145,147,149)" stroke="rgb(145,147,149)" stroke-width="1" opacity="0.5215686274509804" d="M 265.5 63 L 264.5 65 L 265.5 63 Z "></path><path fill="rgb(145,147,149)" stroke="rgb(145,147,149)" stroke-width="1" opacity="0.5215686274509804" d="M 245.5 66 L 244.5 68 L 245.5 66 Z "></path><path fill="rgb(145,147,149)" stroke="rgb(145,147,149)" stroke-width="1" opacity="0.5215686274509804" d="M 263.5 66 L 262.5 68 L 263.5 66 Z "></path><path fill="rgb(145,147,149)" stroke="rgb(145,147,149)" stroke-width="1" opacity="0.5215686274509804" d="M 243.5 69 L 241.5 72 L 243.5 69 Z "></path><path fill="rgb(145,147,149)" stroke="rgb(145,147,149)" stroke-width="1" opacity="0.5215686274509804" d="M 261.5 69 L 259.5 72 L 261.5 69 Z "></path><path fill="rgb(145,147,149)" stroke="rgb(145,147,149)" stroke-width="1" opacity="0.5215686274509804" d="M 79.5 70 L 76.5 74 L 79.5 70 Z "></path><path fill="rgb(145,147,149)" stroke="rgb(145,147,149)" stroke-width="1" opacity="0.5215686274509804" d="M 91.5 71 L 92.5 73 L 91.5 71 Z "></path><path fill="rgb(145,147,149)" stroke="rgb(145,147,149)" stroke-width="1" opacity="0.5215686274509804" d="M 157.5 71 L 158 77.5 L 157 77.5 L 157.5 71 Z "></path><path fill="rgb(145,147,149)" stroke="rgb(145,147,149)" stroke-width="1" opacity="0.5215686274509804" d="M 203.5 71 L 204 77.5 L 203 77.5 L 203.5 71 Z "></path><path fill="rgb(145,147,149)" stroke="rgb(145,147,149)" stroke-width="1" opacity="0.5215686274509804" d="M 240.5 73 L 239.5 75 L 240.5 73 Z "></path><path fill="rgb(145,147,149)" stroke="rgb(145,147,149)" stroke-width="1" opacity="0.5215686274509804" d="M 258.5 73 L 257.5 75 L 258.5 73 Z "></path><path fill="rgb(145,147,149)" stroke="rgb(145,147,149)" stroke-width="1" opacity="0.5215686274509804" d="M 238.5 76 L 237.5 78 L 238.5 76 Z "></path><path fill="rgb(145,147,149)" stroke="rgb(145,147,149)" stroke-width="1" opacity="0.5215686274509804" d="M 256.5 76 L 254.5 79 L 256.5 76 Z "></path><path fill="rgb(145,147,149)" stroke="rgb(145,147,149)" stroke-width="1" opacity="0.5215686274509804" d="M 235.5 80 L 234.5 82 L 235.5 80 Z "></path><path fill="rgb(145,147,149)" stroke="rgb(145,147,149)" stroke-width="1" opacity="0.5215686274509804" d="M 253.5 80 L 252.5 82 L 253.5 80 Z "></path><path fill="rgb(145,147,149)" stroke="rgb(145,147,149)" stroke-width="1" opacity="0.5215686274509804" d="M 216.5 82 L 217 84.5 L 216 84.5 L 216.5 82 Z "></path><path fill="rgb(145,147,149)" stroke="rgb(145,147,149)" stroke-width="1" opacity="0.5215686274509804" d="M 151.5 83 L 152 86.5 L 151 86.5 L 151.5 83 Z "></path><path fill="rgb(145,147,149)" stroke="rgb(145,147,149)" stroke-width="1" opacity="0.5215686274509804" d="M 233.5 83 L 232.5 85 L 233.5 83 Z "></path><path fill="rgb(145,147,149)" stroke="rgb(145,147,149)" stroke-width="1" opacity="0.5215686274509804" d="M 251.5 83 L 249.5 86 L 251.5 83 Z "></path><path fill="rgb(145,147,149)" stroke="rgb(145,147,149)" stroke-width="1" opacity="0.5215686274509804" d="M 76.5 84 L 78.5 87 L 76.5 84 Z "></path><path fill="rgb(145,147,149)" stroke="rgb(145,147,149)" stroke-width="1" opacity="0.5215686274509804" d="M 92.5 85 L 91.5 87 L 92.5 85 Z "></path><path fill="rgb(145,147,149)" stroke="rgb(145,147,149)" stroke-width="1" opacity="0.5215686274509804" d="M 160.5 85 L 161.5 87 L 160.5 85 Z "></path><path fill="rgb(145,147,149)" stroke="rgb(145,147,149)" stroke-width="1" opacity="0.5215686274509804" d="M 215.5 86 L 216 87.5 L 214.5 90 L 214 88.5 L 215.5 86 Z "></path><path fill="rgb(145,147,149)" stroke="rgb(145,147,149)" stroke-width="1" opacity="0.5215686274509804" d="M 231.5 86 L 229.5 89 L 231.5 86 Z "></path><path fill="rgb(145,147,149)" stroke="rgb(145,147,149)" stroke-width="1" opacity="0.5215686274509804" d="M 248.5 87 L 247.5 89 L 248.5 87 Z "></path><path fill="rgb(145,147,149)" stroke="rgb(145,147,149)" stroke-width="1" opacity="0.5215686274509804" d="M 150.5 88 L 151 89.5 L 149.5 92 L 149 90.5 L 150.5 88 Z "></path><path fill="rgb(145,147,149)" stroke="rgb(145,147,149)" stroke-width="1" opacity="0.5215686274509804" d="M 162.5 88 L 166.5 93 L 162.5 88 Z "></path><path fill="rgb(145,147,149)" stroke="rgb(145,147,149)" stroke-width="1" opacity="0.5215686274509804" d="M 198.5 88 L 194.5 93 L 198.5 88 Z "></path><path fill="rgb(145,147,149)" stroke="rgb(145,147,149)" stroke-width="1" opacity="0.5215686274509804" d="M 228.5 90 L 227.5 92 L 228.5 90 Z "></path><path fill="rgb(145,147,149)" stroke="rgb(145,147,149)" stroke-width="1" opacity="0.5215686274509804" d="M 246.5 90 L 245.5 92 L 246.5 90 Z "></path><path fill="rgb(145,147,149)" stroke="rgb(145,147,149)" stroke-width="1" opacity="0.5215686274509804" d="M 168.5 93 L 169.5 95 L 168.5 93 Z "></path><path fill="rgb(145,147,149)" stroke="rgb(145,147,149)" stroke-width="1" opacity="0.5215686274509804" d="M 192.5 93 L 191.5 95 L 192.5 93 Z "></path><path fill="rgb(145,147,149)" stroke="rgb(145,147,149)" stroke-width="1" opacity="0.5215686274509804" d="M 212.5 93 L 211.5 95 L 212.5 93 Z "></path><path fill="rgb(145,147,149)" stroke="rgb(145,147,149)" stroke-width="1" opacity="0.5215686274509804" d="M 226.5 93 L 224.5 96 L 226.5 93 Z "></path><path fill="rgb(145,147,149)" stroke="rgb(145,147,149)" stroke-width="1" opacity="0.5215686274509804" d="M 150.5 96 L 158.5 105 L 150.5 96 Z "></path><path fill="rgb(145,147,149)" stroke="rgb(145,147,149)" stroke-width="1" opacity="0.5215686274509804" d="M 174.5 96 L 177 96.5 L 174.5 97 L 174.5 96 Z "></path><path fill="rgb(145,147,149)" stroke="rgb(145,147,149)" stroke-width="1" opacity="0.5215686274509804" d="M 184.5 96 L 187 96.5 L 184.5 97 L 184.5 96 Z "></path><path fill="rgb(145,147,149)" stroke="rgb(145,147,149)" stroke-width="1" opacity="0.5215686274509804" d="M 210.5 96 L 203.5 104 L 210.5 96 Z "></path><path fill="rgb(145,147,149)" stroke="rgb(145,147,149)" stroke-width="1" opacity="0.5215686274509804" d="M 223.5 97 L 222.5 99 L 223.5 97 Z "></path><path fill="rgb(145,147,149)" stroke="rgb(145,147,149)" stroke-width="1" opacity="0.5215686274509804" d="M 221.5 100 L 220.5 102 L 221.5 100 Z "></path><path fill="rgb(145,147,149)" stroke="rgb(145,147,149)" stroke-width="1" opacity="0.5215686274509804" d="M 219.5 103 L 217.5 106 L 219.5 103 Z "></path><path fill="rgb(145,147,149)" stroke="rgb(145,147,149)" stroke-width="1" opacity="0.5215686274509804" d="M 201.5 104 L 199.5 107 L 194.5 109 L 194.5 108 L 201.5 104 Z "></path><path fill="rgb(145,147,149)" stroke="rgb(145,147,149)" stroke-width="1" opacity="0.5215686274509804" d="M 160.5 105 L 167 108.5 L 165.5 109 L 161.5 107 L 160.5 105 Z "></path><path fill="rgb(145,147,149)" stroke="rgb(145,147,149)" stroke-width="1" opacity="0.5215686274509804" d="M 171.5 110 L 174 110.5 L 171.5 111 L 171.5 110 Z "></path><path fill="rgb(145,147,149)" stroke="rgb(145,147,149)" stroke-width="1" opacity="0.5215686274509804" d="M 187.5 110 L 190 110.5 L 187.5 111 L 187.5 110 Z "></path><path fill="rgb(145,147,147)" stroke="rgb(145,147,147)" stroke-width="1" opacity="0.996078431372549" d="M 204 1 L 216.5 1 L 217 1.5 L 217 81.5 L 213 92.5 L 202.5 104 L 190.5 110 L 174.5 111 L 159.5 105 L 150 95.5 L 149 92.5 L 153 81.5 L 153 49.5 L 156.5 46 L 168.5 39 L 172.5 38 L 188.5 38 L 204 45 L 204 1 Z M 177 51 L 169 54 L 159 65 L 157 72 L 158 82 L 162 89 L 170 95 L 181 98 L 190 96 L 195 93 L 201 86 L 204 78 L 203 68 L 200 62 L 191 53 L 185 51 L 177 51 Z "></path><path fill="rgb(145,147,147)" stroke="rgb(145,147,147)" stroke-width="1" opacity="0.996078431372549" d="M 288.5 1 L 294.5 2 L 298 5.5 L 299 13.5 L 295.5 18 L 289.5 20 L 282 15.5 L 281 7.5 L 285.5 2 L 288.5 1 Z "></path><path fill="rgb(145,147,147)" stroke="rgb(145,147,147)" stroke-width="1" opacity="0.996078431372549" d="M 219 39 L 282 39.5 L 243 94.5 L 280.5 95 L 282 96.5 L 282 108.5 L 281.5 109 L 216.5 109 L 217 107.5 L 255 53.5 L 219 53 L 219 39 Z "></path><path fill="rgb(145,147,147)" stroke="rgb(145,147,147)" stroke-width="1" opacity="0.996078431372549" d="M 283 39 L 296.5 39 L 297 39.5 L 297 109 L 283.5 109 L 283 108.5 L 283 39 Z "></path><path fill="rgb(145,147,147)" stroke="rgb(145,147,147)" stroke-width="1" opacity="0.996078431372549" d="M 81.5 70 L 83 70 L 83 71.5 L 80.5 75 L 76.5 76 L 77 74.5 L 79.5 71 L 81.5 70 Z "></path><path fill="rgb(145,147,147)" stroke="rgb(145,147,147)" stroke-width="1" opacity="0.996078431372549" d="M 92.5 73 L 94 74.5 L 95 80.5 L 89.5 88 L 83.5 89 L 79 86.5 L 80.5 87 L 84.5 88 L 92 83.5 L 94 77.5 L 92.5 73 Z "></path><path fill="rgb(14,82,187)" stroke="rgb(14,82,187)" stroke-width="1" opacity="0.28627450980392155" d="M 135 1 L 150 1.5 L 136 2 L 136 44.5 L 134.5 45 L 133.5 43 L 135 43.5 L 135 1 Z "></path><path fill="rgb(14,82,187)" stroke="rgb(14,82,187)" stroke-width="1" opacity="0.28627450980392155" d="M 31.5 37 L 43.5 37 L 48 38.5 L 44.5 39 L 43.5 38 L 31.5 38 L 27.5 39 L 27.5 38 L 31.5 37 Z "></path><path fill="rgb(14,82,187)" stroke="rgb(14,82,187)" stroke-width="1" opacity="0.28627450980392155" d="M 107.5 37 L 119 37.5 L 107.5 38 L 107.5 37 Z "></path><path fill="rgb(14,82,187)" stroke="rgb(14,82,187)" stroke-width="1" opacity="0.28627450980392155" d="M 103.5 38 L 106 38.5 L 103.5 39 L 103.5 38 Z "></path><path fill="rgb(14,82,187)" stroke="rgb(14,82,187)" stroke-width="1" opacity="0.28627450980392155" d="M 120.5 38 L 123 38.5 L 120.5 39 L 120.5 38 Z "></path><path fill="rgb(14,82,187)" stroke="rgb(14,82,187)" stroke-width="1" opacity="0.28627450980392155" d="M 24.5 39 L 26 39.5 L 17.5 44 L 18.5 42 L 24.5 39 Z "></path><path fill="rgb(14,82,187)" stroke="rgb(14,82,187)" stroke-width="1" opacity="0.28627450980392155" d="M 49.5 39 L 58 43.5 L 56.5 43 L 49.5 40 L 49.5 39 Z "></path><path fill="rgb(14,82,187)" stroke="rgb(14,82,187)" stroke-width="1" opacity="0.28627450980392155" d="M 99.5 39 L 102 39.5 L 94.5 43 L 95.5 41 L 99.5 39 Z "></path><path fill="rgb(14,82,187)" stroke="rgb(14,82,187)" stroke-width="1" opacity="0.28627450980392155" d="M 127.5 40 L 130 41.5 L 128.5 41 L 127.5 40 Z "></path><path fill="rgb(14,82,187)" stroke="rgb(14,82,187)" stroke-width="1" opacity="0.28627450980392155" d="M 92.5 43 L 90.5 46 L 84.5 51 L 89.5 45 L 92.5 43 Z "></path><path fill="rgb(14,82,187)" stroke="rgb(14,82,187)" stroke-width="1" opacity="0.28627450980392155" d="M 15.5 44 L 7 53.5 L 5.5 56 L 6 54.5 L 15.5 44 Z "></path><path fill="rgb(14,82,187)" stroke="rgb(14,82,187)" stroke-width="1" opacity="0.28627450980392155" d="M 59.5 44 L 70 55.5 L 68 54.5 L 59.5 44 Z "></path><path fill="rgb(14,82,187)" stroke="rgb(14,82,187)" stroke-width="1" opacity="0.28627450980392155" d="M 32.5 52 L 43 52.5 L 32.5 53 L 32.5 52 Z "></path><path fill="rgb(14,82,187)" stroke="rgb(14,82,187)" stroke-width="1" opacity="0.28627450980392155" d="M 83.5 52 L 82 54.5 L 80.5 57 L 81 55.5 L 83.5 52 Z "></path><path fill="rgb(14,82,187)" stroke="rgb(14,82,187)" stroke-width="1" opacity="0.28627450980392155" d="M 107.5 52 L 119 52.5 L 107.5 53 L 107.5 52 Z "></path><path fill="rgb(14,82,187)" stroke="rgb(14,82,187)" stroke-width="1" opacity="0.28627450980392155" d="M 44.5 53 L 48 54.5 L 46.5 54 L 44.5 54 L 44.5 53 Z "></path><path fill="rgb(14,82,187)" stroke="rgb(14,82,187)" stroke-width="1" opacity="0.28627450980392155" d="M 104.5 53 L 106 53.5 L 100.5 56 L 94.5 62 L 100.5 55 L 104.5 53 Z "></path><path fill="rgb(14,82,187)" stroke="rgb(14,82,187)" stroke-width="1" opacity="0.28627450980392155" d="M 120.5 53 L 125.5 55 L 133 62.5 L 136 69.5 L 136 79.5 L 135 79.5 L 135 69.5 L 134 66.5 L 125.5 56 L 120.5 54 L 120.5 53 Z "></path><path fill="rgb(14,82,187)" stroke="rgb(14,82,187)" stroke-width="1" opacity="0.28627450980392155" d="M 25.5 55 L 23.5 58 L 20.5 60 L 22.5 57 L 25.5 55 Z "></path><path fill="rgb(14,82,187)" stroke="rgb(14,82,187)" stroke-width="1" opacity="0.28627450980392155" d="M 49.5 55 L 56 60.5 L 58 63.5 L 55 61.5 L 51.5 57 L 49.5 55 Z "></path><path fill="rgb(14,82,187)" stroke="rgb(14,82,187)" stroke-width="1" opacity="0.28627450980392155" d="M 70.5 57 L 72 59.5 L 71 59.5 L 70.5 57 Z "></path><path fill="rgb(14,82,187)" stroke="rgb(14,82,187)" stroke-width="1" opacity="0.28627450980392155" d="M 3.5 59 L 4 60.5 L 2.5 63 L 2 61.5 L 3.5 59 Z "></path><path fill="rgb(14,82,187)" stroke="rgb(14,82,187)" stroke-width="1" opacity="0.28627450980392155" d="M 78.5 60 L 79 61.5 L 77.5 65 L 77 62.5 L 78.5 60 Z "></path><path fill="rgb(14,82,187)" stroke="rgb(14,82,187)" stroke-width="1" opacity="0.28627450980392155" d="M 19.5 61 L 18.5 63 L 19.5 61 Z "></path><path fill="rgb(14,82,187)" stroke="rgb(14,82,187)" stroke-width="1" opacity="0.28627450980392155" d="M 72.5 61 L 74 65.5 L 73 65.5 L 72.5 61 Z "></path><path fill="rgb(14,82,187)" stroke="rgb(14,82,187)" stroke-width="1" opacity="0.28627450980392155" d="M 93.5 63 L 93 64.5 L 92.5 66 L 92 64.5 L 93.5 63 Z "></path><path fill="rgb(14,82,187)" stroke="rgb(14,82,187)" stroke-width="1" opacity="0.28627450980392155" d="M 1.5 64 L 2 66.5 L 1 67.5 L 1 81.5 L 6 93.5 L 4 92.5 L 0 81.5 L 0 67.5 L 1.5 64 Z "></path><path fill="rgb(14,82,187)" stroke="rgb(14,82,187)" stroke-width="1" opacity="0.28627450980392155" d="M 17.5 64 L 18.5 65 L 58 65.5 L 17 66 L 17.5 64 Z "></path><path fill="rgb(14,82,187)" stroke="rgb(14,82,187)" stroke-width="1" opacity="0.28627450980392155" d="M 76.5 66 L 77.5 69 L 80.5 67 L 89.5 67 L 89.5 68 L 80.5 68 L 76.5 71 L 76.5 66 Z "></path><path fill="rgb(14,82,187)" stroke="rgb(14,82,187)" stroke-width="1" opacity="0.28627450980392155" d="M 74.5 67 L 76 74.5 L 75 80 L 16.5 80 L 15.5 81 L 15 79 L 73.5 79 L 74 78.5 L 74.5 67 Z "></path><path fill="rgb(14,82,187)" stroke="rgb(14,82,187)" stroke-width="1" opacity="0.28627450980392155" d="M 149.5 80 L 150 84.5 L 144.5 95 L 145 93.5 L 148 87.5 L 149.5 80 Z "></path><path fill="rgb(14,82,187)" stroke="rgb(14,82,187)" stroke-width="1" opacity="0.28627450980392155" d="M 16.5 82 L 19 87.5 L 24.5 93 L 27 94.5 L 25.5 94 L 18 87.5 L 16.5 82 Z "></path><path fill="rgb(14,82,187)" stroke="rgb(14,82,187)" stroke-width="1" opacity="0.28627450980392155" d="M 59 82 L 61 82.5 L 58 88.5 L 60 95 L 58 94.5 L 59 92.5 L 57 87.5 L 59 82 Z "></path><path fill="rgb(14,82,187)" stroke="rgb(14,82,187)" stroke-width="1" opacity="0.28627450980392155" d="M 68.5 83 L 69.5 85 L 68.5 83 Z "></path><path fill="rgb(14,82,187)" stroke="rgb(14,82,187)" stroke-width="1" opacity="0.28627450980392155" d="M 132.5 86 L 131.5 88 L 132.5 86 Z "></path><path fill="rgb(14,82,187)" stroke="rgb(14,82,187)" stroke-width="1" opacity="0.28627450980392155" d="M 94.5 87 L 98 91.5 L 94.5 89 L 89.5 92 L 81 92 L 83 96.5 L 91.5 105 L 94 106.5 L 92.5 106 L 82 96.5 L 79 90 L 81.5 91 L 89.5 91 L 94.5 87 Z "></path><path fill="rgb(14,82,187)" stroke="rgb(14,82,187)" stroke-width="1" opacity="0.28627450980392155" d="M 130.5 89 L 127.5 93 L 130.5 89 Z "></path><path fill="rgb(14,82,187)" stroke="rgb(14,82,187)" stroke-width="1" opacity="0.28627450980392155" d="M 51.5 92 L 57 93.5 L 52.5 94 L 50.5 94 L 46.5 96 L 46.5 95 L 51.5 92 Z "></path><path fill="rgb(14,82,187)" stroke="rgb(14,82,187)" stroke-width="1" opacity="0.28627450980392155" d="M 70.5 92 L 71 93.5 L 67 96.5 L 70.5 92 Z "></path><path fill="rgb(14,82,187)" stroke="rgb(14,82,187)" stroke-width="1" opacity="0.28627450980392155" d="M 99.5 92 L 105 95.5 L 103.5 96 L 99.5 92 Z "></path><path fill="rgb(14,82,187)" stroke="rgb(14,82,187)" stroke-width="1" opacity="0.28627450980392155" d="M 125.5 93 L 124.5 95 L 116.5 98 L 109.5 98 L 106 96.5 L 108.5 96 L 109.5 97 L 116.5 97 L 125.5 93 Z "></path><path fill="rgb(14,82,187)" stroke="rgb(14,82,187)" stroke-width="1" opacity="0.28627450980392155" d="M 6.5 95 L 7.5 97 L 6.5 95 Z "></path><path fill="rgb(14,82,187)" stroke="rgb(14,82,187)" stroke-width="1" opacity="0.28627450980392155" d="M 30.5 96 L 33 96.5 L 30.5 97 L 30.5 96 Z "></path><path fill="rgb(14,82,187)" stroke="rgb(14,82,187)" stroke-width="1" opacity="0.28627450980392155" d="M 42.5 96 L 45 96.5 L 42.5 97 L 42.5 96 Z "></path><path fill="rgb(14,82,187)" stroke="rgb(14,82,187)" stroke-width="1" opacity="0.28627450980392155" d="M 143.5 96 L 134.5 106 L 126.5 110 L 126.5 109 L 134.5 105 L 143.5 96 Z "></path><path fill="rgb(14,82,187)" stroke="rgb(14,82,187)" stroke-width="1" opacity="0.28627450980392155" d="M 34.5 97 L 41 97.5 L 34.5 98 L 34.5 97 Z "></path><path fill="rgb(14,82,187)" stroke="rgb(14,82,187)" stroke-width="1" opacity="0.28627450980392155" d="M 8.5 98 L 20 107.5 L 18.5 107 L 14.5 105 L 8.5 98 Z "></path><path fill="rgb(14,82,187)" stroke="rgb(14,82,187)" stroke-width="1" opacity="0.28627450980392155" d="M 66.5 98 L 60.5 105 L 55.5 108 L 56.5 106 L 66.5 98 Z "></path><path fill="rgb(14,82,187)" stroke="rgb(14,82,187)" stroke-width="1" opacity="0.28627450980392155" d="M 95.5 107 L 100 109.5 L 98.5 110 L 95.5 107 Z "></path><path fill="rgb(14,82,187)" stroke="rgb(14,82,187)" stroke-width="1" opacity="0.28627450980392155" d="M 21.5 108 L 25 109.5 L 23.5 110 L 21.5 108 Z "></path><path fill="rgb(14,82,187)" stroke="rgb(14,82,187)" stroke-width="1" opacity="0.28627450980392155" d="M 101.5 110 L 104 110.5 L 101.5 111 L 101.5 110 Z "></path><path fill="rgb(14,82,187)" stroke="rgb(14,82,187)" stroke-width="1" opacity="0.28627450980392155" d="M 122.5 110 L 125 110.5 L 122.5 111 L 122.5 110 Z "></path><path fill="rgb(168,174,184)" stroke="rgb(168,174,184)" stroke-width="1" opacity="0.054901960784313725" d="M 203.5 0 L 218 0.5 L 203.5 1 L 203.5 0 Z "></path><path fill="rgb(168,174,184)" stroke="rgb(168,174,184)" stroke-width="1" opacity="0.054901960784313725" d="M 288.5 0 L 292 0.5 L 288.5 1 L 288.5 0 Z "></path><path fill="rgb(168,174,184)" stroke="rgb(168,174,184)" stroke-width="1" opacity="0.054901960784313725" d="M 281.5 15 L 282.5 17 L 281.5 15 Z "></path><path fill="rgb(168,174,184)" stroke="rgb(168,174,184)" stroke-width="1" opacity="0.054901960784313725" d="M 156.5 45 L 155.5 47 L 156.5 45 Z "></path><path fill="rgb(168,174,184)" stroke="rgb(168,174,184)" stroke-width="1" opacity="0.054901960784313725" d="M 219.5 53 L 252.5 53 L 254 54.5 L 252.5 54 L 219.5 54 L 219.5 53 Z "></path><path fill="rgb(168,174,184)" stroke="rgb(168,174,184)" stroke-width="1" opacity="0.054901960784313725" d="M 165.5 57 L 163.5 60 L 165.5 57 Z "></path><path fill="rgb(168,174,184)" stroke="rgb(168,174,184)" stroke-width="1" opacity="0.054901960784313725" d="M 195.5 57 L 197.5 60 L 195.5 57 Z "></path><path fill="rgb(168,174,184)" stroke="rgb(168,174,184)" stroke-width="1" opacity="0.054901960784313725" d="M 93.5 73 L 95 75.5 L 94 75.5 L 93.5 73 Z "></path><path fill="rgb(168,174,184)" stroke="rgb(168,174,184)" stroke-width="1" opacity="0.054901960784313725" d="M 94.5 82 L 95 83.5 L 93 84.5 L 94.5 82 Z "></path><path fill="rgb(168,174,184)" stroke="rgb(168,174,184)" stroke-width="1" opacity="0.054901960784313725" d="M 79.5 87 L 82 88.5 L 80.5 89 L 79.5 87 Z "></path><path fill="rgb(168,174,184)" stroke="rgb(168,174,184)" stroke-width="1" opacity="0.054901960784313725" d="M 90.5 87 L 89.5 89 L 88 88.5 L 90.5 87 Z "></path><path fill="rgb(168,174,184)" stroke="rgb(168,174,184)" stroke-width="1" opacity="0.054901960784313725" d="M 244.5 93 L 245.5 94 L 282 94.5 L 244 95 L 244.5 93 Z "></path><path fill="rgb(23,94,204)" stroke="rgb(23,94,204)" stroke-width="1" opacity="0.9137254901960784" d="M 83 69 L 87.5 69 L 92 72.5 L 94 78.5 L 89.5 86 L 83.5 88 L 76 83.5 L 75 77.5 L 82 73.5 L 83 69 Z "></path><path fill="rgb(15,82,186)" stroke="rgb(15,82,186)" stroke-width="1" opacity="0.996078431372549" d="M 136 2 L 149.5 2 L 150 2.5 L 150 79.5 L 148 87.5 L 144 95.5 L 134.5 105 L 121.5 111 L 104.5 111 L 91.5 105 L 83 96.5 L 81 92 L 89.5 92 L 94.5 89 L 103.5 96 L 109.5 98 L 116.5 98 L 124.5 95 L 131 89.5 L 136 79.5 L 136 69.5 L 133 62.5 L 125.5 55 L 118.5 52 L 107.5 52 L 100.5 55 L 94 61.5 L 90.5 68 L 89.5 67 L 80.5 67 L 77.5 69 L 77 65.5 L 80 57.5 L 89.5 46 L 102.5 39 L 106.5 38 L 119.5 38 L 126.5 40 L 136 45 L 136 2 Z "></path><path fill="rgb(15,82,186)" stroke="rgb(15,82,186)" stroke-width="1" opacity="0.996078431372549" d="M 31.5 38 L 48.5 39 L 58.5 44 L 68 53.5 L 74 66.5 L 74 79 L 15.5 79 L 15 80.5 L 18 87.5 L 24.5 94 L 34.5 98 L 40.5 98 L 47.5 96 L 51.5 93 L 60 95 L 58 87.5 L 61.5 82 L 67.5 83 L 70 85.5 L 71 91.5 L 60.5 104 L 46.5 111 L 28.5 111 L 20.5 108 L 8 97.5 L 3 88.5 L 1 81.5 L 1 67.5 L 5 56.5 L 16.5 44 L 26.5 39 L 31.5 38 Z M 33 52 L 23 57 L 17 65 L 18 66 L 58 66 L 56 61 L 47 53 L 33 52 Z "></path></svg>